#!OML:ASF G:\ViconDB\ViconDB\414\test\team2\shane.ASF
:FULLY-SPECIFIED
:DEGREES
181
root -0.999687 16.8292 5.71303 -20.2419 51.7829 -12.9897
lowerback 8.83483 -0.683887 0.876494
upperback 3.46067 -0.716892 2.44988
thorax -1.34767 -0.336504 2.10625
lowerneck -16.5518 -3.60287 -9.32562
upperneck 24.6152 -4.43486 7.91091
head 11.0922 -1.87486 3.83961
rclavicle 1.08623e-013 -2.90226e-014
rhumerus -39.9453 -3.74113 -81.7198
rradius 25.5704
rwrist 43.1544
rhand -26.8418 -11.5207
rfingers 7.12502
rthumb -0.267325 -41.5003
lclavicle 1.08623e-013 -2.90226e-014
lhumerus -20.1668 -10.5552 92.1086
lradius 24.1456
lwrist -25.2878
lhand -39.375 5.54527
lfingers 7.12502
lthumb -12.3652 35.1596
rfemur -6.79811 -7.96724 14.7146
rtibia 47.9013
rfoot -15.2478 -1.70194
rtoes -12.7624
lfemur 13.8456 4.51162 -14.241
ltibia 15.262
lfoot -19.1564 -30.6221
ltoes -1.64191
182
root -0.89113 16.8236 5.82304 -20.5983 52.909 -13.3047
lowerback 8.7718 -0.818844 0.804836
upperback 3.50405 -0.902229 2.47483
thorax -1.26087 -0.429209 2.18901
lowerneck -16.398 -3.7606 -9.62853
upperneck 24.4455 -4.62707 8.0904
head 11.0318 -1.97169 3.92578
rclavicle -7.7644e-014 1.66979e-014
rhumerus -40.7965 -4.83941 -80.3747
rradius 24.8546
rwrist 45.5084
rhand -27.4095 -10.9694
rfingers 7.12502
rthumb -0.815613 -40.9476
lclavicle -7.7644e-014 1.66979e-014
lhumerus -19.3615 -11.0534 92.4125
lradius 24.9583
lwrist -25.7939
lhand -39.418 5.96978
lfingers 7.12502
lthumb -12.4067 35.5816
rfemur -7.22119 -7.64352 14.9539
rtibia 45.2077
rfoot -15.5763 -1.89065
rtoes -12.5026
lfemur 14.6977 3.96793 -14.2225
ltibia 14.466
lfoot -18.8064 -31.4178
ltoes -1.67788
183
root -0.782873 16.82 5.93306 -21.016 53.8996 -13.8962
lowerback 8.67201 -0.949457 0.830791
upperback 3.50394 -1.07278 2.55953
thorax -1.19922 -0.514211 2.27655
lowerneck -16.4655 -3.89442 -9.85416
upperneck 24.4027 -4.80121 8.29722
head 11.0598 -2.04567 4.01443
rclavicle 1.04238e-014 -3.18055e-015
rhumerus -41.5011 -5.22388 -79.6434
rradius 24.7051
rwrist 44.9914
rhand -26.7908 -10.9226
rfingers 7.12502
rthumb -0.218081 -40.9022
lclavicle 1.04238e-014 -3.18055e-015
lhumerus -18.6123 -11.8063 92.6669
lradius 25.8238
lwrist -25.2512
lhand -39.5122 5.66972
lfingers 7.12502
lthumb -12.4975 35.276
rfemur -7.79483 -7.52574 15.4344
rtibia 42.4301
rfoot -16.0201 -2.10077
rtoes -12.6334
lfemur 15.501 3.03521 -14.1511
ltibia 13.423
lfoot -18.3219 -31.6496
ltoes -1.63021
184
root -0.679055 16.8154 6.04335 -21.6013 54.8277 -14.6707
lowerback 8.66835 -1.08337 0.952633
upperback 3.44151 -1.23534 2.68125
thorax -1.25603 -0.594295 2.35022
lowerneck -16.2758 -4.01136 -10.1163
upperneck 24.1777 -4.93996 8.44431
head 10.9658 -2.11926 4.08795
rclavicle -3.95022e-014 -1.66979e-014
rhumerus -42.338 -5.22562 -78.9913
rradius 24.3776
rwrist 45.6647
rhand -27.3071 -10.9214
rfingers 7.12502
rthumb -0.716717 -40.8999
lclavicle -3.95022e-014 -1.66979e-014
lhumerus -18.0647 -12.3195 92.9389
lradius 26.7272
lwrist -25.0259
lhand -39.8419 5.45193
lfingers 7.12502
lthumb -12.8154 35.0386
rfemur -8.32461 -7.29516 16.0495
rtibia 39.5356
rfoot -16.2989 -2.28073
rtoes -12.3583
lfemur 16.3564 2.51424 -13.7776
ltibia 12.3018
lfoot -17.9041 -32.3195
ltoes -1.44558
185
root -0.559083 16.7963 6.14965 -21.5751 55.735 -14.6603
lowerback 8.65139 -1.13835 0.844189
upperback 3.31592 -1.31723 2.64498
thorax -1.37218 -0.635907 2.38281
lowerneck -16.0981 -4.0886 -10.3015
upperneck 24.2147 -5.02598 8.49431
head 10.9616 -2.17195 4.1278
rclavicle -1.79527e-015 1.27222e-014
rhumerus -43.2172 -5.71 -78.2797
rradius 24.5717
rwrist 43.4044
rhand -26.2123 -10.484
rfingers 7.12502
rthumb 0.340691 -40.4635
lclavicle -1.79527e-015 1.27222e-014
lhumerus -17.4191 -12.21 93.1808
lradius 27.0645
lwrist -25.5006
lhand -40.2063 4.8895
lfingers 7.12502
lthumb -13.1667 34.4538
rfemur -8.81436 -7.23646 16.0494
rtibia 36.6964
rfoot -16.8284 -2.12694
rtoes -11.4445
lfemur 17.4597 2.06763 -14.0492
ltibia 11.0622
lfoot -18.4641 -32.2224
ltoes -2.56973
186
root -0.446119 16.79 6.26001 -21.6306 56.7175 -14.7327
lowerback 8.71986 -1.25135 0.505593
upperback 3.26645 -1.49344 2.62868
thorax -1.44638 -0.7256 2.57605
lowerneck -16.2283 -4.09764 -10.0193
upperneck 24.2689 -5.02755 8.19943
head 10.9913 -2.17833 3.96987
rclavicle -3.49985e-014 1.90833e-014
rhumerus -44.0146 -6.05037 -77.4609
rradius 24.2995
rwrist 44.6704
rhand -26.3406 -10.6792
rfingers 7.12502
rthumb 0.216808 -40.6588
lclavicle -3.49985e-014 1.90833e-014
lhumerus -16.9221 -13.5203 93.2764
lradius 28.107
lwrist -24.5493
lhand -40.4811 5.20976
lfingers 7.12502
lthumb -13.4316 34.7567
rfemur -9.2846 -7.34796 16.0815
rtibia 33.989
rfoot -17.0853 -1.73617
rtoes -12.6031
lfemur 18.5857 1.36074 -14.2574
ltibia 9.52101
lfoot -17.6404 -32.744
ltoes -1.79094
187
root -0.331278 16.7812 6.37098 -22.0261 57.4731 -15.217
lowerback 8.88125 -1.28203 0.584725
upperback 3.03567 -1.51733 2.72787
thorax -1.77236 -0.735549 2.64506
lowerneck -15.7334 -4.25602 -10.5319
upperneck 24.1129 -5.21262 8.44444
head 10.88 -2.28977 4.1203
rclavicle -7.6852e-014 -4.81059e-014
rhumerus -45.1581 -6.02059 -76.9051
rradius 24.2982
rwrist 43.6799
rhand -26.8269 -10.7429
rfingers 7.12502
rthumb -0.25291 -40.7225
lclavicle -7.6852e-014 -4.81059e-014
lhumerus -16.8015 -14.3335 93.6428
lradius 28.9823
lwrist -24.75
lhand -40.5297 5.66495
lfingers 7.12502
lthumb -13.4784 35.2088
rfemur -9.83281 -7.52783 16.4714
rtibia 31.5408
rfoot -17.652 -1.20602
rtoes -12.3394
lfemur 19.9287 0.763022 -14.1245
ltibia 7.53361
lfoot -16.6425 -33.0816
ltoes -2.10527
188
root -0.20709 16.7693 6.4782 -22.1924 58.0983 -15.4423
lowerback 8.67122 -1.28857 0.65962
upperback 3.06633 -1.52511 2.71935
thorax -1.62675 -0.739759 2.58838
lowerneck -15.7086 -4.35534 -10.6823
upperneck 24.0765 -5.36098 8.6275
head 10.8887 -2.3496 4.19168
rclavicle -3.15105e-014 -3.97569e-014
rhumerus -45.8416 -6.68459 -75.9811
rradius 24.2157
rwrist 44.2581
rhand -26.374 -10.6048
rfingers 7.12502
rthumb 0.18455 -40.5845
lclavicle -3.15105e-014 -3.97569e-014
lhumerus -16.3126 -14.6827 93.7496
lradius 29.7245
lwrist -24.862
lhand -40.718 5.65937
lfingers 7.12502
lthumb -13.6598 35.1911
rfemur -10.5187 -8.3187 16.7101
rtibia 29.481
rfoot -18.3919 0.105361
rtoes -13.0847
lfemur 21.4597 0.361466 -14.145
ltibia 5.26515
lfoot -15.5538 -33.3492
ltoes -2.40638
189
root -0.0863559 16.754 6.58892 -22.597 58.8096 -15.8923
lowerback 8.60907 -1.42407 0.603919
upperback 3.12867 -1.71211 2.69825
thorax -1.51952 -0.833562 2.6131
lowerneck -16.0145 -4.3366 -10.4436
upperneck 24.1848 -5.36811 8.5994
head 10.981 -2.32744 4.1405
rclavicle 4.40867e-014 -3.57812e-015
rhumerus -46.3214 -6.49628 -75.8505
rradius 24.1136
rwrist 44.3785
rhand -26.6601 -11.0786
rfingers 7.12502
rthumb -0.0917969 -41.0583
lclavicle 4.40867e-014 -3.57812e-015
lhumerus -15.869 -15.3992 93.5369
lradius 30.636
lwrist -24.4053
lhand -40.8479 5.91638
lfingers 7.12502
lthumb -13.785 35.4397
rfemur -11.2921 -9.9656 17.084
rtibia 27.8901
rfoot -19.3546 2.1932
rtoes -13.2417
lfemur 24.3985 -0.190159 -14.0432
ltibia 2.22639e-014
lfoot -12.4694 -33.6812
ltoes -2.56963
